Coordinates
version=1
nRows=4
nColumns=63
inDegrees=yes

Units are S.I. units (second, meters, Newtons, ...)
If the header above contains a line with 'inDegrees', this indicates whether rotational values are in degrees (yes) or radians (no).

endheader
time	pelvis_tilt	pelvis_list	pelvis_rotation	pelvis_tx	pelvis_ty	pelvis_tz	hip_flexion_r	hip_adduction_r	hip_rotation_r	knee_angle_r	knee_angle_r_beta	ankle_angle_r	subtalar_angle_r	mtp_angle_r	hip_flexion_l	hip_adduction_l	hip_rotation_l	knee_angle_l	knee_angle_l_beta	ankle_angle_l	subtalar_angle_l	mtp_angle_l	L5_S1_Flex_Ext	L5_S1_Lat_Bending	L5_S1_axial_rotation	L4_L5_Flex_Ext	L4_L5_Lat_Bending	L4_L5_axial_rotation	L3_L4_Flex_Ext	L3_L4_Lat_Bending	L3_L4_axial_rotation	L2_L3_Flex_Ext	L2_L3_Lat_Bending	L2_L3_axial_rotation	L1_L2_Flex_Ext	L1_L2_Lat_Bending	L1_L2_axial_rotation	L1_T12_Flex_Ext	L1_T12_Lat_Bending	L1_T12_axial_rotation	Abs_r3	Abs_r2	Abs_r1	Abs_t1	Abs_t2	neck_flexion	neck_bending	neck_rotation	arm_flex_r	arm_add_r	arm_rot_r	elbow_flex_r	pro_sup_r	wrist_flex_r	wrist_dev_r	arm_flex_l	arm_add_l	arm_rot_l	elbow_flex_l	pro_sup_l	wrist_flex_l	wrist_dev_l
      3.21666667	      2.36044961	     -5.53641650	     95.19972744	      0.26771459	      1.05464785	      0.29050827	     -0.23516599	      0.63642184	    -19.78645615	      9.22926521	      0.16108107	     26.83501620	     18.09004588	      0.00000000	     -1.21489360	     -0.73247899	     11.49004024	      2.30709316	      0.04026637	     18.29705651	    -16.76276246	      0.00000000	     -0.00598413	     -0.05271661	      1.31980513	     -0.01111313	     -0.07011309	      1.40229295	     -0.00983133	     -0.12817517	      1.40229295	     -0.00683926	     -0.12817517	      1.15482949	     -0.00555686	     -0.10749972	      1.07234167	     -0.00341933	     -0.08165803	      0.98985384	     -0.04274404	     -0.59634086	      7.34036017	      0.00000000	      0.00000000	     28.10175562	      1.87777069	     -8.45783253	      3.71373843	    -13.08770981	     90.20370793	     14.80279825	     11.97292364	     -1.86207349	    -12.48135103	      8.44339455	     -9.62231346	    156.76677011	      1.29631678	      3.30951263	     -6.79709504	    -11.50285338
      3.23333333	      2.35339563	     -5.54929308	     95.55603278	      0.26751297	      1.05456081	      0.29034619	     -0.17435575	      0.60218554	    -20.29217863	      9.44836512	      0.16490508	     26.98893867	     18.14432726	      0.00000000	     -1.20805608	     -0.74551310	     11.73523594	      2.25568740	      0.03936917	     18.18745050	    -16.54598900	      0.00000000	      0.00128901	     -0.04707083	      1.26045149	      0.00239382	     -0.06260421	      1.33922971	      0.00211771	     -0.11444802	      1.33922971	      0.00147321	     -0.11444802	      1.10289506	      0.00119697	     -0.09598684	      1.02411684	      0.00073654	     -0.07291272	      0.94533862	      0.00920726	     -0.53247467	      7.01025307	      0.00000000	      0.00000000	     28.12593140	      0.62256490	     -9.63228395	      3.28606391	    -13.21179228	     86.00958469	     15.17200326	     15.70169555	     -2.35593457	    -11.91268365	      8.35656167	     -9.58764968	    157.98717933	      1.22002826	      3.16767454	     -6.81646716	    -11.25498020
      3.25000000	      2.29586753	     -5.60766404	     96.18427857	      0.26695257	      1.05440689	      0.29012967	     -0.13471971	      0.51953124	    -21.04939643	      9.59966274	      0.16754572	     27.08533134	     18.14931502	      0.00000000	     -1.15201794	     -0.71271031	     12.58448950	      2.16565164	      0.03779775	     17.82351036	    -16.83525839	      0.00000000	      0.01638721	     -0.04970782	      1.09721368	      0.03043268	     -0.06611140	      1.16578953	      0.02692254	     -0.12085959	      1.16578953	      0.01872894	     -0.12085959	      0.96006197	      0.01521716	     -0.10136419	      0.89148611	      0.00936365	     -0.07699741	      0.82291026	      0.11705219	     -0.56230480	      6.10237330	      0.00000000	      0.00000000	     28.15011994	     -0.09996544	    -10.25439955	      3.84160032	    -12.90945936	     91.36221639	     14.52456192	     11.05020513	     -1.79035264	    -12.38162765	      8.09952717	     -9.64158973	    158.02710890	      1.20809975	      3.71591979	     -6.75754703	    -11.14011224
      3.26666667	      2.32230041	     -5.62830940	     96.58338645	      0.26650358	      1.05413917	      0.28992355	     -0.07841480	      0.49177344	    -21.66255798	      9.82488868	      0.17147666	     27.18095817	     18.18641260	      0.00000000	     -1.14522064	     -0.76217072	     13.09634710	      2.09057347	      0.03648739	     17.59611820	    -16.99321935	      0.00000000	      0.02308008	     -0.03946051	      0.97291940	      0.04286203	     -0.05248248	      1.03372686	      0.03791827	     -0.09594428	      1.03372686	      0.02637823	     -0.09594428	      0.85130448	      0.02143217	     -0.08046787	      0.79049701	      0.01318796	     -0.06112433	      0.72968955	      0.16485874	     -0.44638518	      5.41108583	      0.00000000	      0.00000000	     28.16896793	     -0.95703681	    -10.82349530	      3.62168062	    -13.06754330	     88.28583646	     14.87234882	     14.28237834	     -2.05202710	    -11.77155872	      7.83398484	     -9.62450095	    158.35936893	      1.16115119	      4.31852945	     -6.92195199	    -10.98000022
